<svg id="NCAA_REGULAR_SEASON" data-name="NCAA REGULAR SEASON" xmlns="http://www.w3.org/2000/svg" viewBox="0 0 100 100"><defs><style>.cls-1{fill:#fff;}.cls-2{fill:#002856;}.cls-3{fill:#005cb9;}.cls-4{fill:#c3c6c8;}</style></defs><title>ncaa-softball_CLR</title><polygon class="cls-1" points="10.409 14.546 21.512 49.672 1.5 85.454 86.039 85.454 98.5 14.546 10.409 14.546"/><polygon class="cls-2" points="14.469 17.52 24.736 50.002 6.572 82.48 74.844 82.48 86.259 17.52 14.469 17.52"/><polygon class="cls-3" points="89.464 17.52 78.048 82.48 83.542 82.48 94.957 17.52 89.464 17.52"/><path class="cls-1" d="M66.57628,67.41828c-5.12906-1.28914-3.89456-4.27845-10.50431-6.48175-3.87676-4.24243-9.98428-9.89234-9.98428-9.89234a11.34,11.34,0,0,1-.21912-7.817c5.97914.41192,14.64636-1.8104,14.64636-1.8104,3.319,2.8253,8.201,1.91968,8.88668-2.41344a16.49251,16.49251,0,0,0-7.57-.71323,6.47391,6.47391,0,0,0-1.61842,1.15184S43.67383,40.73109,40.76669,38.1163c-3.5229-3.16851.84958-10.27136,5.05768-13.37488a1.76714,1.76714,0,1,0,2.87594-1.94537l.00551-.00371a2.49254,2.49254,0,0,0-2.58719-.859c-5.65029,3.47422-14.84172,10.31358-7.87517,31.74429C35.20836,58.66888,31.935,64.81287,31.935,64.81287c-3.511.98741-4.79041,6.43645-8.521,6.76531-.51193,2.23121-5.11974,3.76695-1.938,6.65629,4.60776-6.54611,13.38428-10.97129,13.38428-10.97129,4.6811-4.937,8.88713-9.10623,8.88713-9.10623,8.92273,5.77832,15.72488,7.78954,27.35431,14.3357C71.815,70.76452,71.70531,68.70785,66.57628,67.41828Z"/><path class="cls-1" d="M45.20029,30.56708c-1.26879-.60345-2.947-.2411-3.61912,1.87567-.8039,2.53337.63144,5.07859,1.49766,5.46425.64329.28645,2.11213-1.06965,2.96268-2.97878s.42714-3.75725-.84122-4.36114"/><path class="cls-4" d="M42.18549,31.79352a3.32492,3.32492,0,0,1,.42211-.96624,3.3003,3.3003,0,0,0-1.026,1.61548c-.8039,2.53337.631,5.07859,1.49722,5.46425.256.11443.64329-.03558,1.06965-.37251a6.05938,6.05938,0,0,1-1.963-5.741"/><path class="cls-4" d="M61.04508,40.16447a41.51709,41.51709,0,0,1-15.17693,1.35228,2.74717,2.74717,0,0,1-.00846,1.7549c.00508-.02925.00846-.04448.00846-.04448,5.97957.41147,14.64677-1.81041,14.64677-1.81041,2.79782,2.38166,6.70592,2.11213,8.27561-.62719-3.78862,2.22062-7.74545-.62511-7.74545-.62511"/><path class="cls-4" d="M71.11795,69.93814c-1.20227-.1462-5.93465-.85688-8.7655-3.26016a16.92364,16.92364,0,0,0-6.5-3.68521c-2.6334.16486-7.05855-5.74987-12.34309-8.05356a17.809,17.809,0,0,1,.25555,3.22878c8.91426,5.7694,15.71508,7.78277,27.3369,14.32469a2.832,2.832,0,0,0,.0161-2.55455"/><path class="cls-4" d="M47.73366,25.547a1.7675,1.7675,0,0,1-.0161-3.25173,1.769,1.769,0,0,0-1.30223.31413c-.00821.00424-.01036.00037-.02254.00969l-.03369.02733-.01568.01271a18.41546,18.41546,0,0,0-5.70813,8.25209,18.52047,18.52047,0,0,1,5.19292-6.16227,1.7599,1.7599,0,0,0,2.31989.91452A1.75106,1.75106,0,0,1,47.73366,25.547Z"/><path class="cls-4" d="M37.44416,34.77976a3.9867,3.9867,0,0,1-.86661-1.285c-1.38762,4.642-1.32339,10.98687,1.66591,20.18288C35.20836,58.66888,31.935,64.81287,31.935,64.81287c-3.51058.98741-4.79041,6.43645-8.521,6.76531-.51238,2.23121-5.11974,3.76695-1.938,6.65629,4.60733-6.54611,13.3847-10.97129,13.3847-10.97129.62977-.66444,1.25058-1.31457,1.85447-1.94256a35.65927,35.65927,0,0,1,4.76458-13.41694C40.16322,44.882,35.67232,43.76139,37.44416,34.77976Z"/></svg>